# xmcd CD database file
#
# Track frame offsets:
#	150
#	9735
#	19279
#	29503
#	41978
#	58388
#	72049
#	103246
#	118448
#	138245
#	152369
#	168781
#	180046
#	191232
#	212540
#	223690
#	236808
#	253598
#
# Disc length: 3721 seconds
#
# Revision: 2
# Processed by: cddbd v1.5.2PL0 Copyright (c) Steve Scherf et al.
# Submitted via: CDex 1.70beta2
#
DISCID=080e8712
DTITLE=Various Artist - Plénitude vol. 2
DYEAR=2002
DGENRE=New Age
TTITLE0=Hadouk - Didier Malherbe and Loy Ehrlich
TTITLE1=Harvey's tune - Al Kooper and Steve Stills
TTITLE2=Heavenly gene - Anthony Phillips
TTITLE3=Peaceful valley - Philippe Lhommet
TTITLE4=Light - Cyril Morin
TTITLE5=Dancing star - Armand Frydman
TTITLE6=Extase - Georges Bodossian and Catherine Lambert
TTITLE7=Brighid's Kiss - La Lugh
TTITLE8=Emigrants - Bruno Alexiu
TTITLE9=Soft Dream - Jean-Yves Rigo and Hélène Blazy
TTITLE10=Asian reflections - Thierry David
TTITLE11=Tara Bay - André Abrahamse
TTITLE12=Step into the future - Jean-Paul Merkel
TTITLE13=Distant horizon - Mo Foster
TTITLE14=Soft river - Pierre Perez-Vergara
TTITLE15=Nightwatch - Rod Bowkett
TTITLE16=U sipolcru - A Filetta
TTITLE17=Vivencias imaginadas - Vincente Amigo
EXTD=YEAR: 2002
EXTT0=
EXTT1=
EXTT2=
EXTT3=
EXTT4=
EXTT5=
EXTT6=
EXTT7=
EXTT8=
EXTT9=
EXTT10=
EXTT11=
EXTT12=
EXTT13=
EXTT14=
EXTT15=
EXTT16=
EXTT17=
PLAYORDER=
